<?xml version="1.0" encoding="utf-8"?>
<!-- Generator: Adobe Illustrator 24.0.2, SVG Export Plug-In . SVG Version: 6.00 Build 0)  -->
<svg version="1.1" id="Layer_1" xmlns:xodm="http://www.corel.com/coreldraw/odm/2003"
	 xmlns="http://www.w3.org/2000/svg" xmlns:xlink="http://www.w3.org/1999/xlink" x="0px" y="0px" viewBox="0 0 541 150"
	 style="enable-background:new 0 0 541 150;" xml:space="preserve">
<style type="text/css">
	.st0{fill-rule:evenodd;clip-rule:evenodd;fill:#A2A2A2;}
	.st1{fill-rule:evenodd;clip-rule:evenodd;fill:#959595;}
	.st2{fill-rule:evenodd;clip-rule:evenodd;fill:#5E5E5E;}
	.st3{fill-rule:evenodd;clip-rule:evenodd;fill:#5D5D5D;}
</style>
<g id="Layer_x0020_1">
	<g id="_2407053530064">
		<path class="st0" d="M31,131.7c2-2.8,2.3-13.4,3-17.5c1.7-12.1,1-44.3,0.9-56.5c0-9.6-0.1-19.1-0.2-28.6c0-4.8-0.2-9.6-0.3-14.3
			c-0.1-4.6-0.7-9-0.9-13.4c-0.2-0.8-0.1-0.7-0.7-1.1c0,5.9-3.1,7-5.5,9.5c-0.6,0.6-1,1-1.6,1.5c-0.7,0.5-1,0.9-1.6,1.5l-7,8.2
			C11.2,28.5,7.7,35.6,4.5,45c-3,9.2-4.9,22.3-4.4,32.1c0.2,3.7,0.9,7.4,1.6,10.7c0.7,3.1,1.7,6.4,2.9,9.3
			c2.4,6.1,4.8,10.5,8.4,15.9c2,2.9,5.7,7.5,8.2,10.1c1.9,1.9,4.1,4.2,6.2,5.9C28.3,129.8,30,131.2,31,131.7z"/>
		<path class="st1" d="M34,114.2c0.4,1.3,0.4,3.3,0.5,4.8c0.2,1.6,0.4,3.1,0.8,4.6c0.6,2.8,1.9,6.1,4.1,6.9c4.6-3,8.7-7.4,12.1-11.6
			C66,101,70.9,76,64.6,53.5c-0.9-3.1-1.8-6.1-2.9-9c-2.9-7.2-4.2-9.9-7.9-16c-3-5-4.9-6.6-7.6-10c-1.3-1.7-6.9-6.9-8.5-9.4
			c-1.6-2.4-3.4-6.7-4.2-7.8c0.2,4.4,0.7,8.9,0.9,13.4c0.1,4.8,0.3,9.5,0.3,14.3c0.1,9.6,0.2,19.1,0.2,28.6
			C35,69.8,35.7,102.1,34,114.2z"/>
		<path class="st2" d="M434.2,54.5c6.8,0,13.3,1,18.7,4.2c0.9,0.5,1.4,0.9,2.2,1.5c7.4,5.6,10.7,13.9,10.7,23.6
			c0,5.3-0.8,10.1-2.4,13.9c-3,7.7-9.5,13.8-18,14.7c-5.1,0.5-10.7,0-14-2c-4-2.3-2.9-8.5-2.9-13.4c0-5.9-0.2-10.1-0.2-15.7
			c0-2.9,0.2-5,0.2-7.9l0-16.5C428.8,54.7,431.2,54.5,434.2,54.5z M406.4,53.8c5.6,1.3,10.9,0,10.9,6.9v39.8c0,2.4-0.2,4.1-0.2,6.3
			c0,2.2-0.4,3.9-1.6,4.9c-0.5,0.4-1.6,0.8-2.2,1c-2,0.5-4.9-0.5-4.9,4.9c4.4,0,8.1,0.2,12.6,0.2c4.2,0,8.9-0.1,12.8,0.2
			c2.3,0.2,4-0.2,6.2-0.2c5,0,12-1.7,16.2-3.3c12.4-5,21.2-16.5,21.2-30.7c0-8.9-1.3-15-6.4-22c-3.7-4.9-8.4-8.2-14.8-10.3
			c-7-2.4-14-1.9-23.2-2c-2.2,0-3.7,0.2-6,0.2l-18.6-0.2C407.7,50.9,406.8,52.1,406.4,53.8L406.4,53.8z"/>
		<path class="st2" d="M506.2,83.6c7.9,0,17.3,0.7,21.2,7.2c3.3,5.5,2.6,13.4-1.2,17.7c-3.9,4.4-8.7,4.2-13.7,4.2
			c-2.9,0-5.9-0.5-7.5-2.8c-1.7-2.4-1.4-4.9-1.4-8.9c0-3.5-0.2-6.4-0.2-10.1c0-2,0.2-3.1,0.2-4.9C503.5,84.3,503,83.6,506.2,83.6
			L506.2,83.6z M514.3,78.7h-9.2c-0.8,0-0.9-0.2-1.6-0.2c0-3.1-0.1-18.2,0.1-20.7c0.3-2.4-0.5-2.9,5-2.9c8.1,0,16.1,3.2,16.1,11.8
			c0,3.6-0.3,6.7-2.9,9.3C520.3,77.7,517.5,78.7,514.3,78.7z M483,54c4.5,1,9.5,0,9.8,4.7c0.1,1.6,0.1,3.3,0.2,4.7
			c0.2,2.9-0.2,6.1-0.2,9.4v29.3c0,8.5,0,9.7-4.1,10.6c-1.3,0.3-2.9,0.6-4.4,0.6c-0.2,0.4-0.4,0.8-0.6,1.1c-1.5,3-1,3.3,0.4,3.3
			c2.4,0,4.9,0,7.4,0c1.5,0,2,0.2,3.3,0.2c12.7,0.2,25.6,1.3,35.9-4.9c6.1-3.7,11.1-9.2,10.2-19.1c-0.2-2.2-1-4-1.8-5.6
			c-2.3-4.5-9.4-8.6-13.7-8.9c0.5-0.7,2.6-1.5,3.5-2.1c1.1-0.8,2.3-1.7,3.2-2.6c5.1-5.6,4.9-14.6-0.5-19.8c-2-2-5.4-3.6-8.8-4.4
			c-5.6-1.3-18.2-0.6-25.4-0.6l-13-0.2C483.9,51.1,483,52,483,54L483,54z"/>
		<path class="st2" d="M89.4,78c0,1,1.7,1.2,2.5,1.5c1,0.4,1.8,0.7,2.8,1.2c2.4,1.2,3,1,3,5.3l-0.2,21c0,2.2-0.1,4.5-1.4,5.5
			c-0.8,0.7-4.3,1.4-5.8,1.4c-0.3,1.5-0.3,2.3,0,3.8l11.2-0.2c4.1,0,7.4,0.2,11.4,0.2l0.2-3.8c-1,0-2.5-0.3-3.5-0.6
			c-3.9-0.9-3-2.3-3.2-4.8c-0.4-3.9-0.2-18.5-0.2-23.3c0-2.6,3-4,5.3-4.9c2.5-1,5.4-1.7,8.5-0.9c8.1,2.2,6.8,14,6.8,21.7
			c0,2.3,0,8.6-0.6,10.1c-0.7,2-3.1,2-5.5,2.5c-2,0.4-1.2,1.9-1,3.9c3.8,0,12-0.4,14.6-0.1l7.3,0.1c1,0,0.9-2.2,0.9-3.1
			c0-1.1-2.7-0.9-4.9-1.7c-2.1-0.8-2.1-1.7-2.1-4.4c0-6.8,0.2-15.9-0.2-22.6c-0.1-1.9-1.3-3,4.2-5.2c4.8-2,10.6-2.2,13.8,2.6
			c1.8,2.7,2.1,5.3,2.1,9.6c0,3.6,0.2,15-0.3,17.8c-0.2,0.9-0.6,1.5-1.4,2c-1.9,1.1-4.9,0.7-4.9,1.9c0,1.8-0.1,1.6,0.2,3.1
			c1.9,0,2.8-0.2,4.7-0.2h10.5c2.6,0,4.3,0.2,6.9,0.2c0.1-1.5,0.5-0.9,0.5-3.8c-1.4,0-5.4-1-6.2-1.7c-0.9-0.6-1.2-1.1-1.2-2.6
			l0-19.9c0-5.1-1.4-9.1-3.5-12.2c-1-1.5-2.6-2.8-4.2-3.7c-3.5-1.9-7.5-2.1-11.3-0.7l-3.1,1.3c-0.4,0.2-0.5,0.3-1,0.5
			c-1.4,0.8-2.4,1.3-3.7,2.1c-0.9,0.6-2.8,2.2-3.6,2.4c-1.2-1.1-3-5.1-7.5-6.6c-6.5-2.1-12.8,1.4-17.8,5c-0.6,0.5-2.7,2.6-2.5-0.7
			c0.2-3.7,1-5.7-1.3-4.7c-1.8,0.7-4.9,1.6-6.7,2c-1.5,0.3-3.3,0.7-4.8,1C91.7,76.2,89.4,76.1,89.4,78L89.4,78z"/>
		<path class="st2" d="M318.9,139.3c-4.7,0-7.6-0.2-11.4-2.5c-5.4-3.2-6.6-10.2-1.5-14.2c4.1-3.2,4.4-2.8,9.8-2.8
			c3.5,0,8.1,0.6,10.6,1.5C336.5,125,332.3,139.3,318.9,139.3L318.9,139.3z M305.1,88v-2.2c0-4.5,3.1-8.9,7.6-8.9
			c3.9,0,6.7,0.9,8.8,3.8c3.6,5,3.3,15.9-1.8,18.8c-4.2,2.4-9.1,0.5-11.7-2.7C306.4,94.9,305.1,91.5,305.1,88z M296.1,89.2
			c0,7.4,2.8,11.9,8.8,14.7c1.2,0.6,1.7,0.2,1.7,1.7c-0.7,0.2-0.4,0.1-1,0.6l-5.5,3.4c-0.8,0.4-1.6,0.8-1.5,2
			c0.5,4.7,6.4,6.6,6.9,7.2c-1.3,1.9-11.2,6.2-11.2,12.3c0,4.4,2.9,8.4,5.6,10.3c4.3,2.9,7.6,3.6,13.6,3.6c12.2,0,26.4-8.9,26.4-21
			c0-3.7-1.3-5.9-3.5-8.1c-6.6-6.6-27.1-1.5-27.1-7.8c0-3,3.3-3,5.1-3.2c0.7,0,1.8-0.2,2.5-0.4c10.8-2.1,17.7-10.4,15-22.3
			c-0.4-1.8,0.1-0.6,3.8-0.6c4.7,0,5.9-5.8,4.7-8.3c-0.9,0.5-1.4,1.1-2.4,1.6c-2,1-4,0.8-6.1,0.8c-4.3,0-8.7-3.3-15.2-3.3
			c-4.7,0-11.2,2.6-14,4.6C298.9,79.7,296.1,84,296.1,89.2L296.1,89.2z"/>
		<path class="st2" d="M251.1,79.5c-0.3-0.6,0-2.5,0-3.8c0.1-2,0.5-1.6-0.4-3.3c-0.8,0-1.4,0.4-2,0.7l-13.9,3.4
			c-0.5,0.2-1.3,0.7-1.3,1.6c0,2.2,2.8,1.7,6,3.6c1.2,0.7,2,0.8,2,2.9l0.2,8c0,3-0.1,15.7-0.5,18.3c-0.2,1.1-0.6,1.7-1.7,2.1
			c-4.3,1.6-5-0.7-5,3.7c0,2.2,0.9,1.6,1.6,1.6c1.1,0,2.4,0,3.6,0c1.5,0,1.9-0.2,3.3-0.2l13.5,0.2c0.1,0,0.4,0,0.6,0
			c1.4,0,1.2-1.4,1.2-3.9c0-1.7-6.4,0.6-6.9-3.8c-0.4-3.5-0.2-20.7-0.2-24.2c0-3.8,3.4-5.1,6.5-6c6.8-2,13.4,1.1,13.7,10.1
			c0,1.8,0.7,19.7-0.5,21.7c-0.8,1.4-3.9,1.4-5.8,1.8c-0.3,1.4-0.4,3.1,0.2,4.5c1.3,0,1.5-0.2,2.7-0.2c1,0,2,0,2.9,0h14.1
			c1.3,0,1.6,0.2,2.7,0.2c0.9-1.6,0.7-2.1,0.7-4.5c-1.6-0.4-3-0.5-4.5-1c-0.3-0.1-1.6-0.6-1.9-0.8c-2.6-1.8,1.1-23.8-3-32.1
			c-4.2-8.6-13-9.8-21.2-5.1l-4.8,3.2C252.2,78.8,251.9,79.3,251.1,79.5L251.1,79.5z"/>
		<path class="st2" d="M189.8,93.7c0-5.7,0.6-11.6,5.2-14.7c5.8-3.9,14-0.9,17.6,5.1c5.7,9.5,5.6,30-6.9,30c-4.1,0-7.4-1.4-10-4.1
			C192.1,106.3,189.8,99.7,189.8,93.7L189.8,93.7z M180,95.4c0,11.6,5.8,20.7,17.1,23c7.9,1.6,16.8-1,22.2-6.5
			c2.1-2.1,3.7-4.1,4.9-7.2c3-7.4,2.6-16.6-2-23.4c-0.5-0.7-0.7-1-1.2-1.7c-0.6-0.6-0.8-1.1-1.4-1.6c-8-6.7-16.4-7.1-26-3.3
			c-2.4,0.9-5.2,2.6-7,4.4c-1.9,2-3.7,4.1-4.8,6.7C180.8,88.6,180,91.7,180,95.4L180,95.4z"/>
		<path class="st3" d="M367.9,77.3h2c9,0,14.3,10.3,14.3,19c0,4.9,0.1,9.3-2.5,13.4c-4.9,7.6-20.7,6-23.4-11.9
			c-0.9-6-0.7-14.3,4-18.2C363.6,78.6,365.8,77.3,367.9,77.3L367.9,77.3z M348.2,94.3c0,7.5,1.8,14,6.1,18.3c1.1,1.1,1.7,1.7,3,2.6
			c11.8,8,29.6,2.1,34.6-9.4c1.7-4,2.8-9,2.1-14.6c-0.3-2.5-1-4.8-1.9-6.8c-0.7-1.8-2.2-4-3.5-5.3c-0.7-0.8-1.3-1.4-2.2-2
			c-7.2-5.5-15.3-5.7-23.5-2.7C354.5,77.4,348.2,84.8,348.2,94.3L348.2,94.3z"/>
		<path class="st2" d="M31,131.7l1.3,10.3c1,9.3-0.1,7.8,3.9,7.8l1.4-10c0.5-3.1,1.2-6.5,2-9.4c-2.2-0.8-3.5-4.1-4.1-6.9
			c-0.4-1.5-0.6-3-0.8-4.6c-0.1-1.5-0.1-3.4-0.5-4.8C33.3,118.3,33,128.9,31,131.7z"/>
	</g>
</g>
</svg>
